<?xml version="1.0"?>
<svg xmlns="http://www.w3.org/2000/svg" width="16px" height="16px" viewBox="0 0 16 16">
  <path fill="#3b5999" d="M 0.875 0 C 0.38722 0 0 0.38721 0 0.875 L 0 15.125 C 0 15.61266 0.38715 16 0.875 16 L 8.53125 16 L 8.53125 9.8125 L 6.46875 9.8125 L 6.46875 7.375 L 8.53125 7.375 L 8.53125 5.59375 C 8.53125 3.52719 9.8126895 2.40625 11.65625 2.40625 C 12.53932 2.40625 13.27886 2.4706 13.5 2.5 L 13.5 4.65625 L 12.25 4.6875 C 11.24748 4.6875 11.03125 5.14463 11.03125 5.84375 L 11.03125 7.375 L 13.4375 7.375 L 13.125 9.8125 L 11.03125 9.8125 L 11.03125 16 L 15.125 16 C 15.612599 16 16 15.61272 16 15.125 L 16 0.875 C 16 0.38721 15.61266 7.2280145e-020 15.125 0 L 0.875 0 z "/>
</svg>
