<?xml version="1.0"?>
<svg xmlns="http://www.w3.org/2000/svg" width="16" height="16" viewBox="0 0 16 16">
  <path fill="#dd4b39" d="M 0.875,0 C 0.38722,0 0,0.38721 0,0.875 l 0,14.25 C 0,15.61266 0.38715,16 0.875,16 l 14.25,0 C 15.612599,16 16,15.61272 16,15.125 L 16,0.875 C 16,0.38721 15.61266,0 15.125,0 L 0.875,0 z m 6.25,2.65625 2.75,0 -0.90625,0.5625 -0.875,0 c 0.321898,0.26639 1,0.838788 1,1.90625 0,1.03806 -0.568215,1.505926 -1.15625,1.96875 -0.182493,0.182114 -0.40625,0.378148 -0.40625,0.6875 0,0.308085 0.221275,0.497508 0.375,0.625 l 0.5,0.375 C 9.0228,9.300597 9.562627,9.780375 9.5625,10.75 c 0,1.319658 -1.247081,2.65625 -3.65625,2.65625 -2.031636,0 -3.03125,-0.960546 -3.03125,-2 0,-0.505027 0.267079,-1.227157 1.09375,-1.71875 C 4.836735,9.153959 5.994257,9.07459 6.625,9.03125 6.428059,8.778674 6.21875,8.528567 6.21875,8.09375 c 0,-0.238382 0.05568,-0.39382 0.125,-0.5625 C 6.189391,7.54557 6.046415,7.5625 5.90625,7.5625 4.421841,7.5625 3.59375,6.469836 3.59375,5.375 3.59375,4.730062 3.866521,4.019601 4.46875,3.5 5.267793,2.840361 6.367652,2.65625 7.125,2.65625 z M 6.09375,3.1875 C 5.728382,3.1875 5.349695,3.375159 5.125,3.65625 4.886615,3.951409 4.8125,4.321499 4.8125,4.6875 c 0,0.940097 0.544781,2.5 1.75,2.5 0.350032,0 0.743421,-0.181428 0.96875,-0.40625 C 7.853403,6.457197 7.875,6.002957 7.875,5.75 7.875,4.738933 7.255626,3.1875 6.09375,3.1875 z m 5.125,2.5625 0.71875,0 0,1.40625 1.40625,0 0,0.71875 -1.40625,0 0,1.40625 -0.71875,0 0,-1.40625 -1.375,0 0,-0.71875 1.375,0 0,-1.40625 z m -4.4375,3.6875 c -0.126225,0 -0.880715,0.020922 -1.46875,0.21875 -0.308339,0.111651 -1.1875,0.440881 -1.1875,1.4375 0,0.996872 0.938771,1.71875 2.4375,1.71875 1.34513,0 2.0625,-0.630746 2.0625,-1.5 0,-0.717809 -0.434567,-1.116764 -1.5,-1.875 -0.111524,-0.01407 -0.203711,0 -0.34375,0 z"/>
</svg>
