<?xml version="1.0"?>
<svg class="icon icon-linkedin" xmlns="http://www.w3.org/2000/svg" width="144" height="144" viewBox="0 0 144 144">
  <path class="background" fill="#0077b5" d="M 133.34129,0 H 10.6287 C 4.7648628,0 -5e-6,4.648 -5e-6,10.376 V 133.61 c 0,5.734 4.7648678,10.39 10.628705,10.39 h 122.71259 c 5.87384,0 10.6587,-4.655 10.6587,-10.39 V 10.376 C 144,4.648 139.21513,0 133.34129,0 z"/>
  <path class="foreground" fill="white" d="m 21.350995,53.985 h 21.359 v 68.722 h -21.359 V 53.985 z m 10.684,-34.16 c 6.828,0 12.377,5.549 12.377,12.38 0,6.837 -5.549,12.386 -12.377,12.386 -6.846,0 -12.387,-5.549 -12.387,-12.386 10e-4,-6.83 5.542,-12.38 12.387,-12.38"/>
  <path class="foreground" fill="white" d="m 56.106995,53.985 h 20.485 v 9.39 h 0.286 c 2.852,-5.403 9.818,-11.099 20.209,-11.099 21.628005,0 25.621005,14.234 25.621005,32.736 v 37.694 h -21.34401 v -33.42 c 0,-7.969 -0.14599,-18.22 -11.098995,-18.22 -11.113,0 -12.819,8.681 -12.819,17.644 v 33.996 h -21.34 V 53.985 z"/>
</svg>
