<?xml version="1.0"?>
<svg xmlns="http://www.w3.org/2000/svg" width="16" height="16" viewBox="0 0 16 16">
  <path fill="#f28c36" d="M 3,0 C 1.338,0 0,1.338 0,3 l 0,10 c 0,1.662 1.338,3 3,3 l 10,0 c 1.662,0 3,-1.338 3,-3 L 16,3 C 16,1.338 14.662,0 13,0 L 3,0 z M 2,2 a 12,12 0 0 1 12,12 l -2,0 A 10,10 0 0 0 2,4 L 2,2 z m 0,4 a 8,8 0 0 1 8,8 L 8,14 A 6,6 0 0 0 2,8 L 2,6 z m 2,4 c 1.1045695,0 2,0.895431 2,2 0,1.104569 -0.8954305,2 -2,2 -1.1045695,0 -2,-0.895431 -2,-2 0,-1.104569 0.8954305,-2 2,-2 z"/>
</svg>
